<svg id="Capa_1" data-name="Capa 1" xmlns="http://www.w3.org/2000/svg" viewBox="0 0 64.84265 69.0835"><title>Logo</title><path d="M82.69711,37.92375,72.68724,58.159H67.7599L57.80177,37.92375V61.23053h-8.264V24.20222H60.71592l9.53136,20.34305L79.839,24.20222H90.96107V61.23053h-8.264Z" transform="translate(-49.53781 -24.20222)"/><path d="M92.98124,83.35344a6.76829,6.76829,0,0,0,5.561,2.56929,6.68487,6.68487,0,0,0,5.53517-2.56929,10.97557,10.97557,0,0,0,2.039-7.01811V55.88666h8.264V76.60045q0,8.05058-4.44883,12.36792a15.67266,15.67266,0,0,1-11.38934,4.31734A15.7187,15.7187,0,0,1,87.12706,88.9425q-4.47469-4.34214-4.47469-12.342V55.88666h8.264V76.33533A10.90441,10.90441,0,0,0,92.98124,83.35344Z" transform="translate(-49.53781 -24.20222)"/></svg>